<svg xmlns="http://www.w3.org/2000/svg" viewBox="0 0 225 225">
<g transform="translate(0,225) scale(0.1,-0.1)" fill="#000000" stroke="none">
<path d="M1165 2230 c-141 -22 -268 -69 -396 -146 -31 -19 -69 -34 -83 -34
-32 0 -76 40 -76 69 0 33 -21 68 -47 80 -33 15 -483 15 -517 0 -13 -7 -30 -23
-35 -38 -8 -18 -11 -337 -9 -1069 l3 -1044 24 -19 c22 -18 42 -19 290 -19 348
0 328 -16 317 256 -11 273 -35 435 -126 844 -73 327 -83 392 -78 500 8 162 65
217 260 252 149 27 428 30 536 5 202 -45 298 -134 320 -293 11 -80 29 -115 76
-143 64 -39 135 -53 289 -55 138 -3 149 -4 172 -26 30 -28 43 -98 25 -141 -15
-34 -58 -70 -110 -89 -24 -9 -123 -15 -315 -19 l-280 -6 -68 -33 c-107 -53
-140 -113 -178 -330 -17 -93 -22 -174 -26 -398 l-6 -281 28 -21 c28 -22 29
-22 534 -22 534 1 524 0 549 47 16 29 17 1231 1 1371 -41 374 -223 634 -523
747 -38 14 -101 33 -140 41 -85 19 -326 27 -411 14z M1174 1671 c-73 -18 -124
-87 -124 -168 0 -127 138 -205 252 -141 89 50 112 170 47 252 -38 48 -113 72
-175 57z"/>
</g>
</svg>
