<?xml version="1.0" standalone="no"?>
<!DOCTYPE svg PUBLIC "-//W3C//DTD SVG 20010904//EN"
 "http://www.w3.org/TR/2001/REC-SVG-20010904/DTD/svg10.dtd">
<svg version="1.0" xmlns="http://www.w3.org/2000/svg"
 width="240.000000pt" height="240.000000pt" viewBox="0 0 240.000000 240.000000"
 preserveAspectRatio="xMidYMid meet">
<metadata>
Created by potrace 1.11, written by Peter Selinger 2001-2013
</metadata>
<g transform="translate(0.000000,240.000000) scale(0.100000,-0.100000)"
fill="#000000" stroke="none">
<path d="M1127 2324 c-1 -1 -27 -4 -58 -7 -251 -27 -500 -153 -686 -346 -40
-42 -73 -79 -73 -83 0 -3 -6 -13 -12 -20 -61 -66 -167 -283 -184 -378 -3 -14
-9 -42 -15 -63 -34 -128 -29 -352 12 -501 11 -39 23 -85 28 -102 13 -48 85
-187 138 -265 61 -92 195 -225 286 -285 80 -53 216 -123 262 -135 16 -4 62
-17 100 -28 81 -22 171 -34 270 -34 253 -1 485 77 689 231 59 46 206 190 206
203 0 4 6 14 13 21 67 73 150 246 187 392 39 156 44 387 10 506 -5 16 -7 30
-5 30 3 0 0 12 -6 28 -6 15 -13 37 -15 48 -5 27 -58 153 -83 198 -11 18 -25
44 -33 57 -7 13 -15 26 -18 29 -3 3 -25 32 -50 65 -61 83 -171 188 -255 243
-81 53 -213 122 -236 122 -8 0 -19 4 -25 9 -14 13 -161 49 -234 57 -61 6 -208
12 -213 8z"/>
</g>
</svg>
